<svg xmlns="http://www.w3.org/2000/svg" viewBox="0 0 124.785 18.082">
  <defs>
    <style>
      .cls-1, .cls-4 {
        fill: rgba(0,0,0,0);
      }

      .cls-1, .cls-2, .cls-3 {
        stroke: #3db54a;
      }

      .cls-1, .cls-2, .cls-3, .cls-4, .cls-5 {
        stroke-linecap: square;
        stroke-miterlimit: 10;
        stroke-width: 2px;
      }

      .cls-2, .cls-5 {
        fill: none;
      }

      .cls-3 {
        fill: #3db54a;
      }

      .cls-4, .cls-5 {
        stroke: #fff;
      }
    </style>
  </defs>
  <g id="onClick" transform="translate(1.014 1.274)">
    <path id="Path_1" data-name="Path 1" class="cls-1" d="M14.958,1.33c4.386,1.534,6.852,5.388,5.9,9.222s-5.063,6.586-9.831,6.586-8.878-2.753-9.831-6.586S2.7,2.864,7.091,1.33" transform="translate(-0.989 -1.33)"/>
    <line id="Line_1" data-name="Line 1" class="cls-2" y2="6.883" transform="translate(9.905 0.436)"/>
    <path id="Path_2" data-name="Path 2" class="cls-3" d="M13.015,10.5a1.793,1.793,0,0,1-1.321,1.634,2.5,2.5,0,0,1-2.345-.38,1.539,1.539,0,0,1-.464-1.924A2.2,2.2,0,0,1,10.877,8.75,1.974,1.974,0,0,1,13.015,10.5Z" transform="translate(-0.962 -2.641)"/>
    <path id="Path_3" data-name="Path 3" class="cls-4" d="M43.312,15.881V10.118c0-4.124-4.075-7.468-9.1-7.468s-9.1,3.343-9.1,7.468v5.763" transform="translate(-0.906 -1.563)"/>
    <path id="Path_4" data-name="Path 4" class="cls-4" d="M65.109,12.022c-1.693,3.231-5.92,5.04-10.117,4.331s-7.21-3.741-7.21-7.258,3.012-6.549,7.21-7.258,8.425,1.1,10.117,4.331" transform="translate(-0.828 -1.393)"/>
    <path id="Path_5" data-name="Path 5" class="cls-4" d="M69.86,2.25v9.781s0,4.076,4.726,4.076h4.766" transform="translate(-0.753 -1.493)"/>
    <line id="Line_2" data-name="Line 2" class="cls-5" y2="14.071" transform="translate(85.152 0.65)"/>
    <path id="Path_6" data-name="Path 6" class="cls-4" d="M107.19,12.027c-1.7,3.26-5.961,5.089-10.195,4.376s-7.273-3.769-7.273-7.315,3.039-6.6,7.273-7.315,8.494,1.116,10.195,4.376" transform="translate(-0.685 -1.381)"/>
    <path id="Path_7" data-name="Path 7" class="cls-4" d="M111.62,9.019c4.636-.535,10.486-3.293,10.486-7.369" transform="translate(-0.61 -1.387)"/>
    <path id="Path_8" data-name="Path 8" class="cls-4" d="M111.62,10.759c6.532-.683,11.79,2.3,11.76,7.624" transform="translate(-0.61 -2.979)"/>
    <line id="Line_3" data-name="Line 3" class="cls-5" y2="15.051" transform="translate(110.82 0.453)"/>
  </g>
</svg>
